<svg xmlns="http://www.w3.org/2000/svg" width="489.326" height="137" viewBox="0 0 489.326 137">
  <defs>
    <style>
      .cls-1 {
        fill: #ffc107;
      }

      .cls-2 {
        fill: #28a745;
      }
    </style>
  </defs>
  <g id="Group_2" data-name="Group 2" transform="translate(-48.5 -60.5)">
    <path id="Path_4" data-name="Path 4" class="cls-1" d="M68.5,137a68.179,68.179,0,0,1-38.3-11.7A68.693,68.693,0,0,1,5.383,95.162,68.409,68.409,0,0,1,11.7,30.2,68.7,68.7,0,0,1,41.837,5.383,68.414,68.414,0,0,1,106.8,11.7a68.7,68.7,0,0,1,24.818,30.138A68.414,68.414,0,0,1,125.3,106.8a68.693,68.693,0,0,1-30.139,24.818A68.077,68.077,0,0,1,68.5,137Zm0-121.508a47.983,47.983,0,0,0-10,1.085,55.576,55.576,0,0,0-9.8,3.091,62.778,62.778,0,0,0-17.6,11.2A60,60,0,0,0,24,38.477a53.326,53.326,0,0,0-5.5,8.617,42.329,42.329,0,0,0-4.82,19.258,42.814,42.814,0,0,0,1.264,10.12,53.813,53.813,0,0,0,3.557,10A67.929,67.929,0,0,0,31.1,104.6a65.722,65.722,0,0,0,17.6,13.1,50.252,50.252,0,0,0,9.8,3.717,39.946,39.946,0,0,0,10,1.323,12.877,12.877,0,0,0,5.847-1.233,9.326,9.326,0,0,0,3.7-3.39c1.948-3.073,2.658-7.707,2.11-13.772a86.693,86.693,0,0,0-3.682-17.16A177.558,177.558,0,0,0,68.5,66.352a149.04,149.04,0,0,0,7.819-18.333,74.471,74.471,0,0,0,3.765-15.266c.632-5.437.069-9.653-1.672-12.532a9.059,9.059,0,0,0-3.74-3.462A13.732,13.732,0,0,0,68.5,15.492ZM40.755,95.586h0c.152-1.82.276-3.351.378-4.681.1-1.3.164-2.688.189-4.116s.051-3.1.076-4.984.038-4.306.038-7.212c0-2.856-.013-5.194-.038-6.948s-.063-3.278-.113-4.531-.114-2.408-.189-3.436c-.086-1.175-.175-2.407-.264-3.663a40.7,40.7,0,0,0,4.19.529c1.379.1,2.814.151,4.267.151a52.962,52.962,0,0,0,8.534-.68c-.3,4.107-.492,7.931-.566,11.366s-.113,6.392-.113,8.8v4.078c0,1.153.013,2.423.038,3.776l.076,4.078c.024,1.346.075,2.68.15,3.965s.139,2.461.189,3.511c-1.443-.2-2.929-.363-4.418-.489s-2.964-.189-4.417-.189a36.354,36.354,0,0,0-4,.227c-1.507.168-2.816.316-4,.453Zm8.61-42.819a7.522,7.522,0,0,1-3.1-.642A8.4,8.4,0,0,1,42,47.858a7.429,7.429,0,0,1,0-6.041,8.4,8.4,0,0,1,4.267-4.267,7.522,7.522,0,0,1,3.1-.642,7.336,7.336,0,0,1,3.02.642,8.788,8.788,0,0,1,2.53,1.7,7.837,7.837,0,0,1,1.737,2.53,7.608,7.608,0,0,1,0,6.116,7.837,7.837,0,0,1-1.737,2.53,8.788,8.788,0,0,1-2.53,1.7A7.336,7.336,0,0,1,49.365,52.767Z" transform="translate(48.5 60.5)"/>
    <path id="Path_5" data-name="Path 5" class="cls-2" d="M29.988-32.536q0,8.33.147,16.9T30.968,0a51.953,51.953,0,0,0-5.929-.686q-3.185-.2-6.321-.2t-6.174.294Q9.506-.294,7.056,0q.49-8.232.735-16.17t.245-16.17q0-1.96-.049-4.851T7.938-43.12q0-3.136-.049-6.027T7.84-54q0-3.43-.2-7.742t-.588-8.428q2.548.294,5.88.588t6.076.294q3.038,0,6.272-.245t5.782-.637q-.49,7.056-.784,13.916t-.294,13.916Zm10.29-.686q0-5.292-.2-9.408T39.4-51.352q2.45.392,5.145.637t5.243.245a58.536,58.536,0,0,0,10.192-.882,75.241,75.241,0,0,1-.588,7.644,37.925,37.925,0,0,1,3.479-3.43,21.41,21.41,0,0,1,3.577-2.5,15.483,15.483,0,0,1,3.92-1.519,20.4,20.4,0,0,1,4.7-.49q8.232,0,12.446,4.263t4.214,12.495v3.724q0,2.058-.049,4.214t-.049,4.214V-14.8q0,3.626.049,7.644T91.924,0q-2.646-.392-5.292-.637T81.34-.882q-2.548,0-5.39.245T70.56,0q.392-7.35.588-14.406t.2-14.406q0-1.96-.1-3.822a12.539,12.539,0,0,0-.637-3.43,5.638,5.638,0,0,0-1.617-2.5,4.506,4.506,0,0,0-3.038-.931,4.152,4.152,0,0,0-3.283,1.274A8,8,0,0,0,61-34.888a21.837,21.837,0,0,0-.637,4.7q-.1,2.646-.1,5.39v8.82q0,5.684.147,9.31T60.858,0q-2.842-.2-5.537-.539a43.825,43.825,0,0,0-5.537-.343,46.572,46.572,0,0,0-5.243.294Q41.944-.294,39.3,0q.588-6.272.784-12.642t.2-12.838ZM134.26-65.856a9.493,9.493,0,0,1,.833-3.92,10.889,10.889,0,0,1,2.254-3.283,10.89,10.89,0,0,1,3.283-2.254,9.726,9.726,0,0,1,4.018-.833,9.493,9.493,0,0,1,3.92.833,11.365,11.365,0,0,1,3.283,2.2,10.136,10.136,0,0,1,2.254,3.283,9.832,9.832,0,0,1,.833,3.969,9.832,9.832,0,0,1-.833,3.969,10.136,10.136,0,0,1-2.254,3.283,11.365,11.365,0,0,1-3.283,2.2,9.493,9.493,0,0,1-3.92.833,9.726,9.726,0,0,1-4.018-.833,10.889,10.889,0,0,1-3.283-2.254,10.889,10.889,0,0,1-2.254-3.283A9.493,9.493,0,0,1,134.26-65.856Zm.1,38.612q0-5.586-.049-9.016t-.147-5.88q-.1-2.45-.245-4.459t-.343-4.753a52.654,52.654,0,0,0,5.439.686q2.7.2,5.537.2a68.473,68.473,0,0,0,11.074-.882q-.588,8.036-.735,14.749t-.147,11.417v5.292q0,2.254.049,4.9l.1,5.292q.049,2.646.2,5.145T155.33,0q-2.842-.392-5.733-.637t-5.733-.245a47.018,47.018,0,0,0-5.194.294q-2.646.294-5.194.588.294-3.528.49-6.076t.245-5.341q.049-2.793.1-6.468T134.358-27.244Zm-5.88-33.516a43.763,43.763,0,0,0-5-2.4,15.616,15.616,0,0,0-5.88-1.029,8.088,8.088,0,0,0-3.381.784,2.854,2.854,0,0,0-1.715,2.842,5.31,5.31,0,0,0,.735,2.45,24.021,24.021,0,0,0,1.813,2.842q1.078,1.47,2.352,2.94t2.352,2.646q2.548,0,5-.049t5-.343q-.2.784-.343,1.568a9.619,9.619,0,0,0-.147,1.764,19.4,19.4,0,0,0,.49,4.312q-2.254-.2-4.361-.343t-4.361-.147q0,10.976.2,21.511T121.814,0q-2.352-.392-5.194-.637t-5.978-.245a47.885,47.885,0,0,0-5.292.294L100.058,0q.49-5.292.588-11.074t.1-10.976V-35.672q0-1.862-.049-3.626t-.147-3.626q-1.96,0-3.773.147t-3.479.343a21.638,21.638,0,0,0,.49-4.116,13.006,13.006,0,0,0-.147-1.813,13.162,13.162,0,0,0-.343-1.715q1.666.1,3.528.245t3.724.147q.392-3.136.931-5.684a32.141,32.141,0,0,1,1.421-4.851,21.656,21.656,0,0,1,2.352-4.459,27.374,27.374,0,0,1,3.724-4.312,23.8,23.8,0,0,1,4.557-3.479,25.555,25.555,0,0,1,4.459-2.058,21.047,21.047,0,0,1,4.018-.98,25.818,25.818,0,0,1,3.332-.245q1.666,0,3.332.147t3.038.343a50.585,50.585,0,0,0-1.274,6.86q-.392,3.43-.588,7.056Zm34.594,27.538q0-5.292-.2-9.408t-.686-8.722q2.45.392,5.145.637t5.243.245a58.536,58.536,0,0,0,10.192-.882,75.243,75.243,0,0,1-.588,7.644,37.925,37.925,0,0,1,3.479-3.43,21.411,21.411,0,0,1,3.577-2.5,15.483,15.483,0,0,1,3.92-1.519,20.4,20.4,0,0,1,4.7-.49q8.232,0,12.446,4.263t4.214,12.495v3.724q0,2.058-.049,4.214t-.049,4.214V-14.8q0,3.626.049,7.644T214.718,0q-2.646-.392-5.292-.637t-5.292-.245q-2.548,0-5.39.245T193.354,0q.392-7.35.588-14.406t.2-14.406q0-1.96-.1-3.822a12.539,12.539,0,0,0-.637-3.43,5.638,5.638,0,0,0-1.617-2.5,4.505,4.505,0,0,0-3.038-.931,4.152,4.152,0,0,0-3.283,1.274,8,8,0,0,0-1.666,3.332,21.837,21.837,0,0,0-.637,4.7q-.1,2.646-.1,5.39v8.82q0,5.684.147,9.31T183.652,0q-2.842-.2-5.537-.539a43.825,43.825,0,0,0-5.537-.343,46.573,46.573,0,0,0-5.243.294q-2.6.294-5.243.588.588-6.272.784-12.642t.2-12.838Zm59.486,1.862q0-6.762.049-11.319a82.239,82.239,0,0,0-.343-8.673q2.842.294,5.733.588a56.634,56.634,0,0,0,5.733.294q2.548,0,5-.245t5-.637q-.2,2.94-.343,5.488t-.245,5.586q-.1,3.038-.147,6.86t-.049,9.408q0,2.352.1,4.606a16.53,16.53,0,0,0,.588,3.92,5.754,5.754,0,0,0,1.617,2.7,4.555,4.555,0,0,0,3.185,1.029,4.029,4.029,0,0,0,3.185-1.274,7.552,7.552,0,0,0,1.617-3.234,21.655,21.655,0,0,0,.588-4.361q.1-2.4.1-4.753,0-6.468-.049-13.279t-.539-12.691q2.842.392,5.537.637t5.537.245a63.7,63.7,0,0,0,10.486-.882q-.2,1.47-.392,3.773t-.294,5.145q-.1,2.842-.147,5.929t-.049,6.223v7.546q0,7.644.147,12.985T274.792,0q-2.254-.294-5.145-.588a54.79,54.79,0,0,0-5.537-.294,42.328,42.328,0,0,0-4.949.294q-2.5.294-4.949.588.392-3.822.588-7.546a50.853,50.853,0,0,1-3.675,3.528,18.235,18.235,0,0,1-3.528,2.4,13.15,13.15,0,0,1-3.969,1.274,32.9,32.9,0,0,1-5.1.343Q230.5,0,226.478-4.312t-4.018-12.25v-3.43q0-1.96.049-3.969t.049-3.871ZM302.232,5.782q0,2.548.1,5.341t.2,5.488q.1,2.7.245,5.1t.245,3.969q-3.038-.392-5.537-.637t-5.341-.245q-2.646,0-5.39.245t-5.488.637q.49-8.918.686-17.738t.2-17.15V-22.736q0-5.292-.1-9.555t-.245-8.575q-.147-4.312-.441-10.486l5.292.588a47.885,47.885,0,0,0,5.292.294,52,52,0,0,0,9.6-.882l-.392,5.978a21.472,21.472,0,0,1,5.831-4.7,15.8,15.8,0,0,1,7.4-1.568,20.488,20.488,0,0,1,9.555,2.156,21.918,21.918,0,0,1,7.056,5.733,24.864,24.864,0,0,1,4.361,8.232,31.864,31.864,0,0,1,1.47,9.653,34.64,34.64,0,0,1-1.372,9.653,27.181,27.181,0,0,1-4.067,8.477,20.014,20.014,0,0,1-6.762,5.929,19.537,19.537,0,0,1-9.457,2.2,24.02,24.02,0,0,1-7.4-.98,12.354,12.354,0,0,1-5.537-4.018ZM301.84-25.48a62.536,62.536,0,0,0,.49,8.673,21.361,21.361,0,0,0,1.372,5.39,6.106,6.106,0,0,0,2.107,2.793,4.9,4.9,0,0,0,2.7.784q3.43,0,5-3.822T315.07-24.5q0-2.842-.1-6.027a30.338,30.338,0,0,0-.735-5.929,12.411,12.411,0,0,0-1.96-4.557,4.391,4.391,0,0,0-3.773-1.813,4.516,4.516,0,0,0-3.724,1.715,10.994,10.994,0,0,0-2.009,4.312,29.673,29.673,0,0,0-.784,5.635Q301.84-28.126,301.84-25.48Z" transform="translate(201 163)"/>
  </g>
</svg>
